<svg width="417" height="96" viewBox="0 0 417 96" fill="none" xmlns="http://www.w3.org/2000/svg">
<path fill-rule="evenodd" clip-rule="evenodd" d="M348.494 27.4939C337.169 38.8191 337.169 57.1809 348.494 68.5061C359.819 79.8313 378.181 79.8313 389.506 68.5061C400.831 57.1809 400.831 38.8191 389.506 27.4939C378.181 16.1687 359.819 16.1687 348.494 27.4939ZM402.941 14.0589C384.196 -4.68629 353.804 -4.68629 335.059 14.0589C316.314 32.804 316.314 63.196 335.059 81.9411C353.804 100.686 384.196 100.686 402.941 81.9411C421.686 63.196 421.686 32.804 402.941 14.0589Z" fill="white"/>
<path fill-rule="evenodd" clip-rule="evenodd" d="M85.3372 27.4939C74.012 38.8191 74.012 57.1809 85.3372 68.5061C96.6624 79.8313 115.024 79.8313 126.349 68.5061C137.675 57.1809 137.675 38.8191 126.349 27.4939C115.024 16.1687 96.6624 16.1687 85.3372 27.4939ZM139.784 14.0589C121.039 -4.68629 90.6473 -4.68629 71.9021 14.0589C53.157 32.804 53.157 63.196 71.9021 81.9411C90.6473 100.686 121.039 100.686 139.784 81.9411C158.53 63.196 158.53 32.804 139.784 14.0589Z" fill="white"/>
<path d="M323.519 18.2634C320.894 17.7015 317.987 17.3268 314.8 17.3268C307.486 17.3268 301.673 19.762 297.36 24.4449C293.047 29.1278 290.797 35.7776 290.797 44.2068V94.0332H271.576V1.96683H290.797V11.52L292.016 10.3024C292.578 9.74049 293.797 8.89756 295.579 7.58634C297.454 6.27512 299.329 5.15122 301.392 4.12098C303.455 3.09073 305.986 2.15415 309.174 1.31122C312.362 0.468293 315.55 0 318.738 0H323.519V18.2634Z" fill="white"/>
<path d="M255.344 1.96683V94.0332H236.124V1.96683H255.344Z" fill="white"/>
<path d="M221.861 12.5502L209.297 25.0068C208.828 24.5385 208.078 23.8829 207.14 22.9463C206.203 22.0098 204.14 20.8859 201.14 19.481C198.139 18.0761 195.045 17.3268 192.045 17.3268C187.92 17.3268 184.638 18.3571 182.2 20.2302C179.762 22.1034 178.637 24.3512 178.637 26.88C178.637 29.5961 179.762 31.8439 182.106 33.6234C184.357 35.4966 187.263 36.8078 190.826 37.7444C194.295 38.681 198.046 39.8985 202.077 41.3034C206.109 42.7083 209.859 44.3005 213.422 45.9863C216.985 47.7659 219.892 50.482 222.236 54.041C224.486 57.6937 225.705 62.0956 225.705 67.1532C225.705 75.1142 222.423 81.8576 216.048 87.4771C209.672 93.0966 201.327 95.9063 191.107 95.9063C186.607 95.9063 182.294 95.3444 178.168 94.2205C174.043 93.0966 170.761 91.7854 168.136 90.1932C165.511 88.6946 163.167 87.1024 161.198 85.5102C159.229 83.9181 157.823 82.5132 156.979 81.3893L155.572 79.6098L168.042 67.1532C168.605 68.0898 169.543 69.12 170.761 70.4312C171.98 71.7424 174.606 73.522 178.637 75.5824C182.669 77.6429 186.794 78.6732 191.107 78.6732C196.17 78.6732 200.015 77.6429 202.64 75.5824C205.171 73.522 206.484 70.7122 206.484 67.1532C206.484 64.5307 205.265 62.2829 203.015 60.5034C200.671 58.7239 197.764 57.319 194.295 56.3824C190.732 55.4459 186.982 54.2283 182.95 52.8234C178.919 51.4185 175.168 49.8263 171.605 48.1405C168.042 46.4546 165.136 43.7385 162.886 40.0859C160.542 36.4332 159.416 32.0312 159.416 26.88C159.416 19.8556 162.511 13.5805 168.699 8.14829C174.887 2.7161 182.669 0 192.045 0C195.702 0 199.265 0.468293 202.734 1.31122C206.203 2.15415 209.016 3.18439 211.266 4.40195C213.422 5.61951 215.298 6.83707 216.985 8.14829C218.673 9.45951 219.892 10.3961 220.642 11.1454L221.861 12.5502Z" fill="white"/>
<path d="M14.0589 14.0589C32.804 -4.68629 63.196 -4.68629 81.9411 14.0589C100.686 32.804 100.686 63.196 81.9411 81.9411C63.196 100.686 32.804 100.686 14.0589 81.9411C-4.68629 63.196 -4.68629 32.804 14.0589 14.0589Z" fill="#248AFF"/>
<path d="M14.0589 14.0589C32.804 -4.68629 63.196 -4.68629 81.9411 14.0589C100.686 32.804 100.686 63.196 81.9411 81.9411C63.196 100.686 32.804 100.686 14.0589 81.9411C-4.68629 63.196 -4.68629 32.804 14.0589 14.0589Z" fill="#248AFF"/>
</svg>
